<svg id="Layer_1" data-name="Layer 1"  width="16" height="16" fill="#62397f"  xmlns="http://www.w3.org/2000/svg" viewBox="0 0 197.95 198.3"><defs/><path class="cls-2" d="M104.07 149.83c13.35 3.9 21.91 16.41 34.99 19.92 11.04 2.96 22.51.96 31.69-6.31 13.03-10.3 15.67-29.87 5.89-43.71-7.82-11.08-22.61-13.37-33.04-5.12-8.33 6.59-10.02 19.11-3.76 27.97 0 0 2.89 4.82 7.76 4.33 0 0-14.1 1.15-12.53-17.09l-2.7-1.34c-51.2-11.13-65.65 42.3-65.65 42.3l1.14-15.59-4.38-5.52 16.68-18.84c7.64-9.57 10.18-22.41 6.05-34.05-.02-.06-27.4-71.86-27.4-71.86l-10.9-.21L25.5 94.4c-2.66 7.6-2.97 15.77-.78 23.52 2.22 7.87 7.88 13.96 12.23 20.7 2.48 3.83 4.96 7.65 7.44 11.48l-7.86 7.41 3.9 20.96C-8.31 139.99 1.86 83 1.86 83 20.71.95 95.23.97 95.23.97c72.86.74 93.2 59.39 93.2 59.39-31.27-33.68-49.41-10.41-49.41-10.41.62 18.14-7.82 15.64-7.82 15.64 6.69-2.9 7.66-12.95 5.21-18.66-3.44-8.02-12.36-9.9-20.27-8.62-2.14.35-4.06.88-5.89 2.03-9 5.68-11.12 14.2-9.68 24.14 1.63 11.31 14.77 17.77 24.8 17.97 11.06.22 20.89-5.83 27.6-14.41 15.23-19.47 36.02-3.76 36.02-3.76 19.64 36.54-3.15 81.18-3.15 81.18-47.93 77.66-122.4 45.07-122.4 45.07l3.6-15.05s17.35-31.41 37.03-25.66Z"/><path class="cls-2" d="M59.65 99.15c0 3.5-2.84 6.33-6.33 6.33s-6.33-2.84-6.33-6.33 2.84-6.33 6.33-6.33 6.33 2.84 6.33 6.33Z"/><path style="stroke:#62397f;fill:none;stroke-miterlimit:10;stroke-width:2.62px" d="M54.02 98.86V22.94"/></svg>