<svg id="Layer_1" data-name="Layer 1" width="16" height="16" fill="#ea6706" xmlns="http://www.w3.org/2000/svg" viewBox="0 0 198.71 172.31"><defs/><path class="cls-1" d="M144.34 171.46h53.52l-52.81-91.47c-6.21-.08-12.25-.33-18.1-.76 1.36 18.56-14.88 73.63 5.15 78.73 5.65 1.44 10.04-.53 12.51-2.21 5.02-3.43 3.09-9.67 8.09-13.25 4.74 2.4.81 12.22-.74 16.19-1.77 4.54-5.07 10.14-7.63 12.76ZM84.27 79.23c-3.55 17.48-3.48 37.4-5.88 58.13-1.26 10.89-2.47 25.71-8.5 34.1h41.46c-3.79-3.44-6.48-8.06-7.2-13.5-3.17-23.87 6.19-56.53 5.88-78.73H84.28ZM43.81 164.58c-.1-7.05 6.58-12.83 10.3-18.39 11.21-16.79 17.59-39.58 17.66-66.22-7.85-1.68-14.01-.81-18.89 1.37L.85 171.46h45.03c-1.25-1.98-2.04-4.31-2.08-6.88ZM75.45 61.58c17.09-1.25 39.16-.82 58.58-.67L99.35.85 63.57 62.82c3.46-.54 7.36-.92 11.88-1.24Z"/></svg>