<svg id="Layer_1"  width="16" height="16" fill="#95bc3d" data-name="Layer 1" xmlns="http://www.w3.org/2000/svg" viewBox="0 0 198.76 172.37"><defs/><path class="cls-1" d="M157.3 28.27c-5.85-5.85-16.81-5.56-30.08-.35 3.96 12.25 6.7 27.17 7.73 43.54 3.3 3.75 6.39 7.51 9.26 11.26 16.33-23.52 22.26-45.26 13.09-54.44ZM124.86 60.7c1.98 1.98 3.9 3.98 5.77 5.99-1.36-14.06-4.13-26.68-7.92-36.85-6.29 2.88-13 6.75-19.86 11.52 7.35 5.64 14.78 12.12 22.01 19.34ZM73.9 60.7c7.23-7.23 14.66-13.71 22.01-19.35-6.86-4.77-13.57-8.64-19.86-11.52-3.79 10.17-6.57 22.8-7.92 36.85 1.87-2.01 3.79-4 5.77-5.99ZM41.46 28.27c-9.18 9.18-3.24 30.93 13.09 54.44 2.87-3.75 5.96-7.51 9.26-11.25 1.04-16.37 3.77-31.29 7.74-43.54-13.27-5.21-24.23-5.5-30.08.35ZM99.38 128.53c7.57-5.55 15.28-12.12 22.75-19.6 3.17-3.17 6.17-6.38 9-9.6.27-4.29.42-8.67.42-13.16s-.15-8.87-.42-13.15a209.96 209.96 0 0 0-9-9.6c-7.47-7.47-15.18-14.05-22.75-19.6-7.58 5.55-15.28 12.13-22.75 19.6-3.17 3.17-6.17 6.38-9.01 9.6a209.235 209.235 0 0 0 .01 26.31c2.84 3.22 5.84 6.43 9 9.6 7.48 7.47 15.18 14.05 22.75 19.6Zm0-62c10.85 0 19.66 8.8 19.66 19.65s-8.8 19.66-19.66 19.66-19.66-8.8-19.66-19.66 8.8-19.65 19.66-19.65ZM99.38 133.62c-7.37 5.39-14.63 9.92-21.52 13.44 5.7 13.07 13.24 21.02 21.52 21.02s15.82-7.96 21.52-21.02c-6.89-3.52-14.15-8.05-21.52-13.44ZM99.38 38.75c7.37-5.39 14.63-9.92 21.52-13.44-5.7-13.07-13.24-21.02-21.52-21.02s-15.82 7.96-21.52 21.02c6.89 3.52 14.15 8.05 21.52 13.45ZM63.34 86.18c0-2.8.06-5.57.16-8.31-2.29 2.78-4.45 5.55-6.47 8.31 2.02 2.76 4.18 5.53 6.47 8.31-.1-2.74-.16-5.51-.16-8.31ZM141.73 86.18c-2.02-2.76-4.18-5.53-6.47-8.31.1 2.74.15 5.5.15 8.31s-.06 5.57-.15 8.31c2.29-2.78 4.45-5.55 6.47-8.31ZM124.86 111.67c-7.23 7.23-14.66 13.71-22.01 19.35 6.86 4.77 13.57 8.64 19.86 11.52 3.79-10.16 6.56-22.79 7.92-36.85-1.87 2-3.79 4-5.77 5.99ZM41.46 144.1c5.85 5.85 16.81 5.56 30.08.35-3.97-12.25-6.7-27.17-7.74-43.54-3.3-3.75-6.39-7.51-9.26-11.25-16.32 23.52-22.26 45.26-13.09 54.44ZM73.24 149.29c-13.29 6.07-24.89 8.15-32.83 5.36l9.71 16.83h36c-4.92-4.96-9.31-12.59-12.89-22.2ZM125.52 149.29c-3.59 9.61-7.97 17.24-12.89 22.2h36l9.72-16.83c-7.94 2.78-19.54.7-32.83-5.37ZM73.24 23.08c3.58-9.61 7.97-17.24 12.89-22.2h-36l-9.71 16.83c7.94-2.79 19.54-.71 32.83 5.36ZM51.94 86.18C38.2 67.41 30.15 49.35 29.69 36.27L.88 86.18l28.81 49.91c.46-13.08 8.51-31.14 22.25-49.91ZM157.3 144.1c9.18-9.18 3.24-30.92-13.09-54.44-2.87 3.75-5.96 7.51-9.26 11.26-1.04 16.37-3.77 31.28-7.73 43.53 13.27 5.2 24.23 5.5 30.08-.35ZM73.9 111.67c-1.98-1.99-3.9-3.98-5.77-5.99 1.35 14.06 4.13 26.69 7.92 36.85 6.29-2.88 13-6.75 19.86-11.52-7.35-5.64-14.78-12.12-22.01-19.35ZM125.52 23.08c13.29-6.07 24.89-8.15 32.83-5.36L148.63.88h-36c4.92 4.96 9.31 12.59 12.89 22.2ZM169.06 36.27c-.45 13.08-8.51 31.14-22.25 49.91 13.74 18.77 21.79 36.83 22.25 49.91l28.82-49.91-28.82-49.91Z"/></svg>