<svg id="Layer_1" width="16" height="16" fill="#0c6c8e" data-name="Layer 1" xmlns="http://www.w3.org/2000/svg" viewBox="0 0 197.96 191.12"><defs/><path class="cls-2" d="M28.04 61.36h1.7c.6.28 1.95.26 2.9.35 1.6.16 3.41-.12 5.01 0 .65-.31 1.88-.06 2.76-.14.13-.06.2-.18.36-.21h1.7c.66-.23 1.9-.37 2.47-.57.53-.18 1.2-.41 1.56-.56.2-.1.38.03.42 0 .07-.05-.02-.17.08-.22.25-.12.59-.1.85-.22.44-.18.78-.52 1.06-.7.69-.44 1.38-.72 1.69-1.42-1.1-1.78-3.37-2.37-5.37-3.25-5.94-1.22-14.22-1.21-20.15 0-.12 0-.04.2-.14.21-.41-.11-.93.3-1.06.35-.18.09-.37-.03-.42 0-.06.04.02.17-.07.21-.43.19-.92.19-1.27.42-.13.08-.15.27-.28.35-.39.23-.83.41-1.27.57-.1.49-.61.57-.78.99 1.27 1.94 3.8 2.61 6.16 3.47.7.12 1.57.07 2.12.35ZM20.54 111.57c1.53.59 2.57 1.67 4.46 1.91 0 .11-.01.24.14.21 5.94 1.24 14.2 1.2 20.15 0 .12 0 .04-.19.14-.21.59.05.83-.24 1.29-.33.16-3.15.31-6.85.59-9.96.21-2.22.59-4.22 1.12-6.08-.64-.7-1.3-1.38-1.93-2.09h-.35c-.91-1.41-2.54-2.08-3.47-3.47-.22-.05-.29 0-.36-.07-1.29-1.34-2.55-2.73-3.68-4.25v-.29c-.58-.22-.5-1.08-.99-1.41-.05-.41-.15-.8-.35-1.06v-.92c.02-.1.16-.08.21-.15-.06-.81.52-.99.57-1.69h.21c0-.31.07-.55.35-.56v-.36c.78-.57 1.02-1.67 1.92-2.12-.05-.3.28-.23.21-.56.58-.34.97-.88 1.42-1.35.28.05.2-.26.49-.21 1.28-1.61 3.1-2.69 4.45-4.24 1.34-.97 2.13-2.49 3.26-3.68v-.35c.37-.05.35-.49.57-.7v-4.67c-1.41.58-2.55 1.42-4.24 1.7-.01.08 0 .2-.07.21h-.64c-.89.52-2.46.37-3.46.78-4.81.44-9.95.41-14.78 0-.04-.13-.21-.12-.28-.22-1.52.06-2.43-.5-3.82-.56v-.21c-1.69-.29-2.82-1.14-4.24-1.7v3.53c.23.17.21.59.21 1 .31.65.7 1.22.92 1.97.42.05.35.54.57.78.11.12.32.16.42.28.54.67.97 1.46 1.77 1.84.53.83 1.44 1.36 2.05 1.98.28.28.37.54.78.56.8.94 1.73 1.76 2.69 2.55-.04.28.27.21.21.49 1.13.76 1.81 1.97 2.69 2.97.07.54.6.63.56 1.27.54.4.68 1.36.78 2.19-.85 2.46-2.23 4.37-4.03 5.87-.05.46-.31.72-.77.78-.63.77-1.37 1.59-2.19 2.27-.15.11-.37.1-.49.21-.1.08-.13.33-.22.42-.11.12-.31.24-.42.35-.31.31-.73.5-1.06.78-.25.21-.4.55-.63.78-.09.08-.26.06-.35.14-.04.03.03.18 0 .21s-.18-.03-.22 0c-.03.03.04.18 0 .21-.03.04-.17-.03-.21 0-.19.2-.35.45-.57.64-.18.16-.19.51-.35.71-.08.09-.36.13-.42.21-.11.13-.26.71-.35.78-.25.2-.07.05-.21.36-.01.03-.19.02-.21.07-.18.32-.2.75-.35 1.06-.06.12-.3.37-.35.56-.76 2.63.13 6.2-.21 9.47.45.38.81.84 1.13 1.35Z"/><path class="cls-1" d="M62.9 176.72c.18-1.43.81-3.35 1.31-5.03.71-2.3 1.65-5.07 2.85-6.36 2.76-11.33-.65-24.72-3.72-32.95-1.02 2.57-1.49 5.69-1.75 9.02-.4.71-.94 2.17-.44 3.06-.99 1.98-.5 4.53-1.54 6.14-.29 4.11-1.47 7.38-2.41 11.42-.98 4.18-3.2 8.52-5.07 12.29-1.33 2.76-2.63 5.62-3.96 8.47 4.34 2.64 8.92 4.96 13.68 6.91.49-1.6.89-3.2 1.07-4.83.31-2.83-.32-5.58 0-8.13Z"/><path class="cls-1" d="M34.06 172.37c.63-2.48 1.31-4.96 2.06-7.5.35-1.23.47-2.54.86-3.72.14-.41.74-.7.89-1.1.48-1.36.35-2.93.87-4.41 1.15-3.22 3.51-6.62 4.4-10.32 2.13-8.74 2.33-17.39 3.28-27.57-.68.12-1.4.17-2.11.32-.14.02-.22.19-.36.21-.37.05-.75-.05-1.13 0-.7.09-1.37.29-2.11.35-1.05.1-2.15.1-3.26.21-1.44.14-3.18.14-4.6 0-1.08-.1-2.44-.14-3.32-.36-.37-.09-.9.07-1.34 0-.21-.02-.39-.18-.57-.21-.36-.05-.79.05-1.13 0-.15-.02-.21-.18-.36-.21-.47-.12-1.09 0-1.56-.15-.15-.04-.34-.36-.78-.21-.15.03-.14-.11-.14-.21h-.57c-.8-.48-1.72-.83-2.68-1.13-.12-.48-.92-.27-.99-.78h-.43c.09-.27-.17-.21-.35-.21-.05-.28-.28-.38-.57-.42-.51-.72-1.34-1.11-1.7-1.98-.22-.02-.15-.33-.42-.28-.17-.66-.48-1.17-.78-1.69v-9.41c.12-.08.06-.33.21-.36v-.92c.18-.38.24-.77.36-1.07.1-.23.13-.81.21-.92.04-.05.37-.06.21-.42h.21c.42-1.56 1.55-2.41 2.26-3.68 1.2-1 2.26-2.12 3.32-3.25.65-.29 1.11-.78 1.49-1.34 1.52-.78 2.33-2.29 3.68-3.26.21-.37.38-.79.78-.99-.16-.34.25-.39.35-.56.05-.09-.05-.27 0-.36.04-.08.19 0 .21-.14.11-.68-.37-.95-.56-1.56-1.39-1.53-2.66-3.18-4.45-4.31-.22-.6-.91-.75-1.13-1.35-1.51-.8-2.33-2.29-3.68-3.25-.25-.68-.84-1-1.13-1.63-.44-.13-.3-.84-.78-.92-.35-1.25-1.08-2.12-1.34-3.47-.39-3.23-.14-7.11-.21-10.68.26-.58.61-1.09.78-1.76.33.12.09-.33.42-.21.44-1.14 1.54-1.62 2.26-2.48.57.11.18-.32.71-.21 1.19-.87 2.63-1.47 4.24-1.91.1-.01.02-.21.14-.21.95-.14 1.89-.28 2.69-.57 4.84-.52 11.46-.89 16.34 0h1.13c.16.03.22.15.35.22.95-.1 1.39.3 2.19.36.21.14.43.27.85.21.81.46 1.66.88 2.69 1.13.11.48.91.26.99.78.44-.12.32.34.78.21.15.5.73.55 1.13.92.04.03-.04.18 0 .21.04.04.17-.03.21 0 .04.04-.03.18 0 .21.09.09.45.28.57.43.11.14.16.43.35.63.32.34.61.95.99 1.42v.42c-.07.23.23.1.21.29-.4 3.68.61 8.48-.21 11.66-.26 1.01-1.1 1.54-1.34 2.4-.67.43-.82 1.4-1.56 1.77-.87 1.57-2.4 2.46-3.47 3.82-.25-.01-.3.17-.49.21-.32.53-.94.76-1.21 1.35-1.52.78-2.44 2.41-3.68 3.25-.22.37-.38.8-.77.99-.19.34-.27.78-.57 1 .04.25-.05.38-.14.5.16-.16.16.01.14.21.01.09.13.06.21.07.5 1.33 1.47 2.2 2.48 3.04.93 1.38 2.46 2.15 3.46 3.47.28-.01.29.24.57.21.44.54.92 1.03 1.47 1.46.72-1.53 1.54-2.99 2.48-4.41 1.52-.39 2.36-1.43 3.31-2.41 3.33-1.16 6.41-2.49 10.32-3.06 2.25-1.34 4.72-2.44 7.24-3.51.26-.06.18-.42.21-.67 1.96-.27 3.61-1.49 5.05-2.65 1.21-.96 3.25-1.57 3.74-3.51.96.21 1-.45 1.53-.66.86-5.08 2.21-12.11 0-17.13-.63-1.42-1.78-3.18-2.85-4.82-1.47-2.27-3.46-5.19-3.73-8.99.47.06.42-.33.45-.68 1.75-.29 2.17.75 2.85 1.55 1.18-6.39-1.88-14.39 1.08-18.66.26-.37.81-.16 1.33-.66.64-.63 1.73-2.76 2.62-3.51.29-.22 1-.18 1.3-.44.34-.26.53-1 .69-1.1 1.59-1.04 4.48-1.78 6.13-1.96 10.09-1.2 15.44 3.18 18.24 9.88.6 1.44 2.1 5.15 1.97 8.54-.1 2.85-1.73 4.92-1.97 8.12 1.05-1.19 1.39-3.11 3.72-3.06.46 5.78-3.04 9.56-4.61 14.04-.1 3.16-2.07 5.48-1.75 8.36-.29.2-.29.72-.66.87-.37 3.71.92 5.82 1.54 8.56.82 1.31 2 2.22 2.63 3.71 1.33.59 2.51 1.29 3.31 2.42 3.36 1.63 6 3.96 8.99 5.95 5.78 1.72 10.35 4.7 14.78 7.78-.25-2.13-.42-4.37-.42-6.78 0-21.17 20.36-31.6 21.23-32.03l1.31-.66 1.32.66c.87.43 21.22 10.86 21.22 32.03 0 22.22-11.68 32.34-22.54 32.34-5.13 0-10.43-2.29-14.61-7.02-.13 6.82-1.06 12.83.12 18.23 1.15 5.35 4.89 9.16 5.48 15.39.47 4.92.52 7.89 2.2 12.07.91.44.86 1.92 1.97 2.17.89 2.3 2.36 4.62 3.51 7.05 1.05 2.17 1.94 4.26 3.09 6.35.12.57.26 1.11.4 1.66 20.18-18.07 32.84-44.35 32.68-73.57C196.68 44.31 152.56.68 98.44.98 44.32 1.28.68 45.39.98 99.52c.16 29.02 12.93 55.02 33.08 72.86Z"/><path class="cls-2" d="M162.07 107.33c4.06-8.22 10.91-27.23.18-47.11-4.06 8.21-10.91 27.23-.18 47.11Z"/><path class="cls-2" d="M178.81 83.77c0-8.28-3.98-14.68-8.19-19.16 6.67 18.45 1.14 35.54-2.85 44.22 5.98-3.04 11.04-11.13 11.04-25.06ZM145.5 83.77c0 13.61 4.84 21.68 10.64 24.87-8.67-17.38-5.54-34.21-1.7-44.78-4.48 4.5-8.94 11.16-8.94 19.91Z"/><path class="cls-1" d="M145.45 178.27c-3.64-14.66-10.46-25.76-13.19-41.72.11-.68-.58-.57-.65-1.11-.08-2.67-1.1-4.45-1.3-7.01-.25 3.53-.22 5.16-.45 9.01-.92 1.11-1.26 2.57-1.75 3.96-.82 2.22-2.26 5.17-2.63 7.89-.44 3.17-.37 7.06 0 9.88 1.45 11.33 6.57 21.22 9.46 30.98 4.68-1.85 9.18-4.04 13.48-6.56-1.05-1.71-2.06-3.46-2.96-5.31Z"/></svg>