<?xml version="1.0" encoding="UTF-8"?><svg id="a" xmlns="http://www.w3.org/2000/svg" width="704" height="150" viewBox="0 0 704 150"><rect width="99.24" height="150" style="fill:#9daaf2;"/><rect x="99.24" width="100" height="150" transform="translate(298.48 150) rotate(180)" style="fill:#f4db7d;"/><rect x="373.59" width="131.49" height="150" transform="translate(878.67 150) rotate(180)" style="fill:#f4db7d;"/><rect x="505.08" width="198.92" height="150" style="fill:#ff6a3d;"/><rect x="199.24" y="5.63" width="52.94" height="144.37" style="fill:#ff6a3d;"/><rect x="252.18" width="100.76" height="150" style="fill:#9daaf2;"/><g><path d="m41.93,5.63c9.55,0,19.49.96,28.28,4.78,15.48,6.88,22.93,22.17,22.93,38.6,0,30.96-20.83,44.91-50.06,42.23v53.14H8.68V5.63h33.25Z" style="fill:#fff;"/><path d="m158.49,144.37c-6.5-17.58-13.18-46.45-19.49-64.22.38,5.54.57,11.27.57,16.82v47.41h-34.4V5.63h35.16c8.79,0,18.34.96,26.56,4.39,15.29,6.5,22.93,22.17,22.93,38.22,0,14.9-5.92,25.61-19.68,31.91l25.61,64.22h-37.26Z" style="fill:#fff;"/><path d="m208.86,144.39V57.12h34.4v87.28h-34.4Z" style="fill:#fff;"/><path d="m288.8,5.63c38.98,0,58.28,29.34,58.28,69.49,0,14.77-2.1,29.75-8.79,42.65-10.51,20.6-26.37,26.63-47.01,26.63h-32.1V5.63h29.62Z" style="fill:#fff;"/></g><path d="m199.24,0v40.85c6.94,6.72,16.4,10.86,26.82,10.86s19.25-3.87,26.12-10.19V0h-52.94Z" style="fill:#fff;"/><rect x="347.09" y="67.33" width="34.15" height="15.34" style="fill:#ff6a3d;"/><circle cx="69.28" cy="48.99" r="22.34" style="fill:#9daaf2;"/><circle cx="312.88" cy="75.03" r="30" style="fill:#9daaf2;"/><circle cx="164.93" cy="48.99" r="22.34" style="fill:#f4db7d;"/><g><path d="m381.4,144.39V5.66h43.26v11.86h-30.37v48.88h29.54v11.86h-29.54v54.29h30.37v11.86h-43.26Z" style="fill:#fff;"/><path d="m486.23,144.39l-30.78-91.52c-2.08-6.45-3.95-12.9-5.62-19.55.83,7.28,1.25,14.56,1.25,21.84v89.23h-11.23V5.66h11.23l31.41,94.22c1.87,5.41,3.33,11.02,4.99,16.43-.83-5.62-1.25-11.44-1.25-17.06V5.66h11.23v138.73h-11.23Z" style="fill:#fff;"/><path d="m567.56,140.44c-5.41,3.54-11.65,5.82-18.1,5.82-9.98,0-19.13-5.62-24.96-13.52-10.61-14.56-11.86-36.81-11.86-54.08,0-25.58,2.91-74.88,38.27-74.88,5.82,0,11.65,1.25,16.64,4.37v14.14c-4.78-3.12-9.98-6.03-16.02-6.03-24.96,0-25.79,40.77-25.79,58.24,0,13.52,1.46,39.73,9.15,50.75,3.74,5.41,8.94,8.53,15.6,8.53,6.24,0,12.06-2.91,17.05-6.24v12.9Z" style="fill:#fff;"/><path d="m625.59,140.44c-5.41,3.54-11.65,5.82-18.1,5.82-9.98,0-19.13-5.62-24.96-13.52-10.61-14.56-11.86-36.81-11.86-54.08,0-25.58,2.91-74.88,38.27-74.88,5.82,0,11.65,1.25,16.64,4.37v14.14c-4.78-3.12-9.98-6.03-16.02-6.03-24.96,0-25.79,40.77-25.79,58.24,0,13.52,1.46,39.73,9.15,50.75,3.74,5.41,8.94,8.53,15.6,8.53,6.24,0,12.06-2.91,17.05-6.24v12.9Z" style="fill:#fff;"/><path d="m681.12,144.39v-71.55h-31.62v71.55h-12.9V5.66h12.9v55.33h31.62V5.66h12.89v138.73h-12.89Z" style="fill:#fff;"/></g></svg>